<svg xmlns="http://www.w3.org/2000/svg" width="118" height="73" fill="none"><g fill="#BFFFD1" clip-path="url('#clip0_6_97')"><path d="m20.568 2.082.833.193c.476.122.788.285.928.484.098.142.214.478.214 1.287v22.385c0 1.912.284 3.63.843 5.106.56 1.482 1.361 2.658 2.379 3.49a5.46 5.46 0 0 0 3.545 1.264c1.995 0 3.617-.914 4.822-2.719 1.194-1.789 1.8-4.19 1.8-7.142V5.015c0-1.639.384-2.561 1.14-2.74l.261-.06.26.06c.475.122.788.285.928.484.098.14.214.478.214 1.287v28.49c0 .81-.116 1.146-.214 1.286-.14.201-.453.363-.926.484l-.844.197c-.46.14-.558.457-.558.697 0 .423.236.656.666.656h20.089c.433 0 .963-.214 1.03-1.231l.362-8.619c.033-.379-.02-.64-.166-.798a.51.51 0 0 0-.392-.159c-.245 0-.56.127-.665.734l-.436 2.86c-.333 2.223-.926 3.756-1.76 4.556a4.2 4.2 0 0 1-2.857 1.199c-.06.002-1.76.002-1.873.002-1.145 0-1.937-.246-2.359-.733-.426-.49-.642-1.31-.642-2.44v-12.16c0-.493.207-.557.386-.557h1.78c.523 0 .914.16 1.196.49.286.337.514 1.066.68 2.168l.364 2.38c.066.33.18.545.349.657a.53.53 0 0 0 .417.069q.492-.121.493-.943V12.43q0-.82-.497-.943a.53.53 0 0 0-.414.07c-.168.112-.283.326-.35.662l-.363 2.421c-.233 1.463-.835 2.175-1.84 2.175h-1.815c-.18 0-.386-.062-.386-.556V4.58c0-.9.178-1.53.526-1.876.35-.347 1-.522 1.93-.522.087 0 1.815 0 1.87.003 1.33.036 2.393.533 3.158 1.478.804.995 1.345 2.597 1.608 4.759l.217 1.792c.07.61.381.738.63.738l.017-.002.017.002c.247 0 .559-.128.63-.738l.181-1.598c.262-2.257.827-3.914 1.678-4.926.843-1 1.703-1.508 2.557-1.508q.629 0 .81.243c.128.171.194.473.194.896v29.07c0 .65-.079 1.09-.232 1.311q-.228.324-.905.46l-1.621.338c-.376.039-.582.289-.582.703s.236.655.666.655h8.17c.43 0 .666-.233.666-.655s-.207-.664-.57-.702l-1.633-.339c-.427-.09-.727-.245-.89-.462-.164-.22-.247-.66-.247-1.307V3.319c0-.422.065-.724.193-.895q.159-.211.663-.238.07-.003.147-.004c.877 0 1.75.507 2.594 1.508.85 1.01 1.404 2.666 1.643 4.926l.18 1.6c.07.609.382.737.63.737a.55.55 0 0 0 .426-.17c.146-.158.201-.415.169-.78l-.328-8.773C72.3.415 72.038.001 71.579.001a.9.9 0 0 0-.526.193q-.223.161-.733.348c-.336.123-.89.186-1.647.186H32.577c-.43 0-.666.25-.666.704 0 .348.17.573.497.653l.977.193c.757.178 1.14 1.116 1.14 2.788v21.416c0 2.42-.409 4.322-1.216 5.654-.796 1.31-1.934 1.976-3.381 1.976s-2.55-.666-3.345-1.976c-.807-1.33-1.217-3.233-1.217-5.654V4.094c0-.65.079-1.1.235-1.338q.227-.345.901-.48l.985-.195c.323-.078.493-.303.493-.652 0-.454-.237-.704-.667-.704H20.67c-.43 0-.667.233-.667.656 0 .24.097.556.566.7zm20.989 1.964c0-.65.072-1.083.213-1.287.14-.2.452-.362.926-.484l.267-.061.264.061c.476.122.789.285.929.484.097.142.213.478.213 1.287v28.49c0 .81-.116 1.146-.213 1.286-.14.201-.453.363-.926.484l-.267.062-.264-.062c-.477-.12-.79-.284-.929-.485-.142-.203-.213-.636-.213-1.287z"/><path d="M91.889 54.425c0-3.48-.38-6.59-1.13-9.239-.753-2.654-1.837-4.75-3.224-6.227-1.398-1.488-3.077-2.243-4.99-2.243H75.21a.46.46 0 0 0-.285.109c-.313.246-.73.31-1.08.117a5 5 0 0 0-.837-.364 6.8 6.8 0 0 0-2.145-.346c-1.964 0-3.602.74-4.867 2.198-1.26 1.454-1.9 3.413-1.9 5.822 0 1.82.42 3.558 1.248 5.167.825 1.605 2.153 3.286 3.944 4.998 1.604 1.598 2.786 3.232 3.515 4.857.728 1.624 1.097 3.4 1.097 5.28s-.354 3.454-1.05 4.512c-.687 1.04-1.624 1.568-2.785 1.568-2.172 0-3.684-2.297-4.491-6.829l-.327-1.84c-.04-.24-.163-.973-.665-.973a.46.46 0 0 0-.37.166c-.205.056-.416.236-.498.711l-.436 2.859c-.333 2.223-.926 3.756-1.761 4.556a4.2 4.2 0 0 1-2.856 1.199c-.06.002-1.785.002-1.873.002-1.145 0-1.938-.246-2.36-.734-.425-.49-.641-1.31-.641-2.44v-12.16c0-.493.206-.557.386-.557h1.78c.523 0 .914.16 1.195.49.286.337.515 1.066.681 2.168l.364 2.38c.066.329.18.544.348.656a.53.53 0 0 0 .418.069q.491-.121.492-.943V48.513q0-.82-.497-.944a.53.53 0 0 0-.414.07c-.168.111-.282.326-.349.662l-.363 2.421c-.233 1.463-.835 2.174-1.84 2.174h-1.815c-.18 0-.386-.063-.386-.557V40.662c0-.898.177-1.53.526-1.876s1-.52 1.929-.52c.055 0 .839 0 .893.002 1.33.036 2.393.533 3.158 1.478.804.995 1.345 2.596 1.608 4.758l.217 1.793c.07.61.381.737.63.737q.27 0 .425-.169c.146-.159.201-.416.169-.78l-.291-8.047c-.067-1.015-.598-1.229-1.03-1.229l-16.754-.095c-.43 0-.666.25-.666.704 0 .349.17.573.498.653l.977.193c.757.178 1.14 1.116 1.14 2.788v21.416c0 2.42-.409 4.322-1.216 5.654-.795 1.31-1.934 1.976-3.381 1.976s-2.55-.665-3.345-1.976c-.807-1.33-1.217-3.233-1.217-5.654V40.083c0-.65.079-1.1.235-1.339.15-.23.453-.39.901-.48l.985-.195c.323-.078.493-.303.493-.651 0-.454-.237-.704-.666-.704H21.539c-.758 0-1.311-.063-1.647-.186l-.14-.055a1.4 1.4 0 0 1-.715-.668.5.5 0 0 0-.05-.084q-.13-.16-.41-.161c-.204 0-.478.08-.62.459-.377.969-.828 1.646-1.338 2.012-.51.364-1.108.55-1.78.55a4 4 0 0 1-1.71-.37c-.344-.16-1.758-1.142-2.792-1.86-.577-.4-1.075-.745-1.268-.867a8.3 8.3 0 0 0-1.825-.849c-.2-.063-.265-.125-.288-.161.142-.138.824-.513 1.053-.598l.022-.013c.412-.24.986-.158 1.278.182q.389.455.805.833c1.036.937 2.162 1.412 3.35 1.412 1.187 0 2.309-.475 3.332-1.413 1.012-.927 1.918-2.22 2.697-3.841.775-1.616 1.383-3.542 1.807-5.723.422-2.18.637-4.559.637-7.073s-.215-4.885-.637-7.05c-.424-2.164-1.032-4.089-1.807-5.72-.779-1.639-1.686-2.932-2.698-3.843C15.771.707 14.65.24 13.464.24c-1.187 0-2.314.467-3.349 1.387-1.025.911-1.932 2.204-2.698 3.843-.764 1.633-1.365 3.559-1.788 5.722-.423 2.16-.638 4.532-.638 7.049s.215 4.896.638 7.073c.423 2.18 1.024 4.106 1.797 5.741.148.315.145.68-.011 1.059-.249.603-.855 1.152-1.545 1.401l-2.792 1.088c-1.051.217-1.83.495-2.314.824-.504.345-.762.71-.762 1.083s.173.797.994.797c.432 0 .82-.106 1.154-.312q.482-.3.908-.688c.27-.247.57-.47.888-.66a2 2 0 0 1 1.045-.276c.36 0 .66.115.916.35.272.247.547.557.82.92.18.24.856.822 1.452 1.334.345.297.671.577.806.711.377.375 1.978 1.591 2.514 1.853.534.262 1.219.394 2.032.394 1.33 0 2.512-.435 3.51-1.29l.009-.008a.427.427 0 0 1 .706.34l-.223 6.005c-.033.37.021.628.167.787q.156.17.427.17c.247 0 .558-.127.63-.737l.18-1.598c.263-2.257.828-3.915 1.678-4.926.844-1 1.705-1.508 2.558-1.508q.629 0 .81.242c.128.171.193.473.193.895v29.071c0 .65-.078 1.09-.231 1.311-.15.215-.456.37-.906.46l-1.62.337c-.266.027-.583.171-.583.702 0 .423.237.656.667.656h8.169c.43 0 .666-.233.666-.656 0-.422-.206-.664-.57-.701l-1.634-.34q-.642-.135-.89-.462c-.163-.22-.247-.659-.247-1.307v-29.07c0-.423.065-.725.193-.896q.183-.241.81-.242c.878 0 1.75.507 2.594 1.508.851 1.009 1.404 2.666 1.642 4.926l.182 1.6c.07.609.382.737.63.737q.27 0 .425-.17c.146-.159.202-.416.17-.78l-.296-7.9.744.173q.716.183.928.484c.098.142.215.479.215 1.287v22.385c0 1.913.284 3.631.843 5.106.561 1.482 1.361 2.658 2.379 3.49A5.46 5.46 0 0 0 42 72.279c1.995 0 3.617-.915 4.822-2.72 1.194-1.789 1.8-4.19 1.8-7.14V41.001c0-1.531.334-2.435.993-2.693l.207.048c.475.122.788.285.928.484.098.141.215.478.215 1.287v28.489c0 .81-.116 1.146-.214 1.286-.14.202-.453.364-.926.484l-.843.197c-.461.143-.558.458-.558.698 0 .422.236.655.666.655h14.455c.162 0 .375-.15.577-.332.39-.353.962-.43 1.434-.198.142.07.286.136.419.185.521.194 1.088.359 1.686.489.601.13 1.153.197 1.641.197 1.375 0 2.615-.391 3.685-1.163 1.065-.767 1.915-1.851 2.527-3.223.61-1.366.919-2.981.919-4.798 0-2.075-.425-4.055-1.264-5.889-.837-1.827-2.181-3.754-3.998-5.726-1.679-1.793-2.87-3.332-3.54-4.577a8.2 8.2 0 0 1-1.002-3.915c0-1.615.304-2.879.905-3.759.599-.877 1.38-1.303 2.386-1.303s1.79.54 2.342 1.652c.561 1.134 1.114 2.957 1.642 5.421l.254 1.212c.11.514.31.775.592.775s.594-.164.594-.948l-.109-7.315v-.008a.49.49 0 0 1 .601-.48l.108.025q.717.182.928.484c.098.141.215.478.215 1.287v28.489c0 1.01-.373 1.59-1.14 1.77l-.845.196c-.46.143-.557.459-.557.698 0 .422.236.655.666.655h6.972c1.986 0 3.725-.729 5.17-2.166 1.436-1.43 2.564-3.468 3.353-6.06.787-2.584 1.186-5.678 1.186-9.193zM9.564 5.808c.956-2.662 2.268-4.013 3.897-4.013s2.97 1.35 3.915 4.012c.96 2.705 1.446 6.889 1.446 12.435s-.487 9.74-1.446 12.46c-.945 2.678-2.262 4.036-3.915 4.036-1.652 0-2.94-1.358-3.897-4.038-.97-2.718-1.463-6.91-1.463-12.459S8.593 8.51 9.564 5.806zm77.569 60.49c-1.1 2.682-2.717 4.042-4.806 4.042-.852 0-1.472-.252-1.845-.75-.381-.51-.574-1.406-.574-2.664V41.634c0-2.298.863-3.415 2.637-3.415 2.04 0 3.608 1.416 4.66 4.21 1.067 2.831 1.608 6.867 1.608 11.996s-.565 9.155-1.679 11.873z"/><path d="M117.334 36.715h-5.157c-.407 0-.63.233-.63.656 0 .242.123.56.717.701l.8.145c.512.09.831.37.976.86.148.504.07 1.17-.235 1.982l-4.282 11.672c-.151.353-.355.342-.499.007l-4.466-12.695c-.229-.642-.268-1.114-.116-1.404.15-.285.403-.438.781-.468l.682-.097c.604-.047.73-.408.73-.702 0-.423-.224-.656-.63-.656h-6.209c-.43 0-.666.215-.666.606 0 .392.206.636.596.747l.325.097c.385.122.682.319.883.587.208.277.398.689.564 1.227l5.338 14.923c.236.664.356 1.35.356 2.043V68.38c0 .65-.079 1.09-.232 1.31q-.228.325-.905.46l-.75.157c-.373-.127-.65-.332-.835-.634-.21-.342-.4-.963-.565-1.848L98.169 37.11c-.054-.356-.144-.585-.275-.702-.243-.216-.53-.256-.816 0-.133.118-.223.347-.275.699l-5.629 30.281c-.166.89-.37 1.587-.607 2.077-.228.472-.559.76-1.01.88l-.547.146c-.39.113-.596.371-.596.748 0 .376.236.606.666.606h5.083c.407 0 .63-.233.63-.656 0-.242-.123-.561-.718-.701l-.545-.097c-.374-.066-.647-.231-.833-.504-.326-.476-.379-1.285-.158-2.406l1.235-6.492c.157-.782.51-1.162 1.078-1.162h3.813c.59 0 .943.38 1.078 1.16l1.38 7.508c.117.686.125 1.17.024 1.439q-.137.37-.683.455l-.682.096c-.604.049-.73.41-.73.703 0 .422.224.655.63.655h13.006c.429 0 .666-.233.666-.655s-.207-.664-.57-.701l-1.633-.34c-.427-.09-.727-.245-.89-.462-.164-.22-.247-.659-.247-1.307V56.557c0-.507.036-.965.107-1.36a7.4 7.4 0 0 1 .358-1.262l4.756-12.742c.406-1.053.739-1.814.991-2.26.236-.422.511-.679.814-.766l.365-.098c.39-.112.596-.37.596-.747 0-.376-.236-.606-.666-.606zM99.005 58.033q-.084.099-.269.098h-3.994q-.185 0-.269-.098c-.09-.102-.118-.306-.082-.582l2.403-12.826 2.295 12.82c.037.28.01.483-.081.587zM74.184 22.625c0 2.823.925 5.436 2.487 7.548.414.56.364 1.337-.129 1.83l-.869.869c-.235.235-.305.607-.128.888a.702.702 0 0 0 1.09.127l.896-.896a1.4 1.4 0 0 1 1.83-.129 12.65 12.65 0 0 0 7.547 2.488c2.824 0 5.436-.926 7.548-2.488a1.404 1.404 0 0 1 1.83.13l1.004 1.004a.697.697 0 0 0 1.09-.127c.178-.28.108-.653-.128-.888l-.978-.98a1.4 1.4 0 0 1-.135-1.823 12.67 12.67 0 0 0 2.456-8.544c-.472-6.213-5.488-11.227-11.7-11.699a12.66 12.66 0 0 0-8.542 2.455 1.4 1.4 0 0 1-1.823-.133l-.982-.982c-.23-.23-.596-.302-.875-.131a.7.7 0 0 0-.138 1.096l1.005 1.004c.492.492.544 1.27.129 1.83a12.66 12.66 0 0 0-2.488 7.548zm6.572-9.503a11.28 11.28 0 0 1 7.209-1.776c5.39.492 9.733 4.835 10.223 10.225a11.28 11.28 0 0 1-1.775 7.208c-.48.738-1.53.83-2.155.207l-.818-.818c-.23-.23-.596-.302-.875-.132a.7.7 0 0 0-.138 1.096l.841.842c.626.625.53 1.678-.213 2.16a11.25 11.25 0 0 1-6.147 1.818c-2.264 0-4.375-.669-6.146-1.819-.742-.481-.839-1.533-.214-2.16l4.339-4.337a2.86 2.86 0 0 1 4.042 0l1.12 1.12a.697.697 0 0 0 1.09-.127c.178-.28.108-.653-.127-.888l-3.609-3.61-6.855-6.854c-.624-.624-.532-1.673.208-2.155m-3.354 3.357c.481-.742 1.533-.84 2.159-.214l4.338 4.338a2.86 2.86 0 0 1 0 4.043l-4.338 4.338c-.625.625-1.677.529-2.16-.214a11.25 11.25 0 0 1-1.818-6.146c0-2.264.668-4.376 1.819-6.146"/></g><defs><clipPath id="clip0_6_97"><path fill="#fff" d="M0 0h118v72.28H0z"/></clipPath></defs></svg>